<svg xmlns="http://www.w3.org/2000/svg" xmlns:xlink="http://www.w3.org/1999/xlink" version="1.1" width="102" height="102" viewBox="0 0 102 102">
  <!-- Exported by Scratch - http://scratch.mit.edu/ -->
  <path id="ID0.7165973768569529" fill="none" stroke="#000000" stroke-width="2" d="M 51 1 C 64.795 1 77.295 6.603 86.346 15.654 C 95.397 24.705 101 37.205 101 51 C 101 64.795 95.397 77.295 86.346 86.346 C 77.295 95.397 64.795 101 51 101 C 37.205 101 24.705 95.397 15.654 86.346 C 6.603 77.295 1 64.795 1 51 C 1 37.205 6.603 24.705 15.654 15.654 C 24.705 6.603 37.205 1 51 1 Z "/>
  <path id="ID0.3859244016930461" fill="none" stroke="#000000" stroke-width="2" d="M 51 26 C 57.897 26 64.147 28.801 68.673 33.327 C 73.199 37.853 76 44.103 76 51 C 76 57.897 73.199 64.147 68.673 68.673 C 64.147 73.199 57.897 76 51 76 C 44.103 76 37.853 73.199 33.327 68.673 C 28.801 64.147 26 57.897 26 51 C 26 44.103 28.801 37.853 33.327 33.327 C 37.853 28.801 44.103 26 51 26 Z "/>
  <path id="ID0.9453587434254587" fill="none" stroke="#000000" stroke-width="2" stroke-linecap="round" d="M 2 51 L 100 51 "/>
  <path id="ID0.8962781215086579" fill="none" stroke="#000000" stroke-width="2" stroke-linecap="round" d="M 51 2 L 51 99 "/>
</svg>